<mxfile host="app.diagrams.net" modified="2023-12-30T08:42:39.033Z" agent="Mozilla/5.0 (Windows NT 10.0; Win64; x64) AppleWebKit/537.36 (KHTML, like Gecko) Chrome/109.0.0.0 Safari/537.36" etag="Z-fUPtNdJj-FS1xJ5nQk" version="22.1.16" type="google">
  <diagram name="Page-1" id="PbzOP5GJNvQ7SsrTYfhz">
    <mxGraphModel grid="1" page="1" gridSize="10" guides="1" tooltips="1" connect="1" arrows="1" fold="1" pageScale="1" pageWidth="850" pageHeight="1100" background="#00ff88" math="0" shadow="0">
      <root>
        <mxCell id="0" />
        <mxCell id="1" parent="0" />
        <mxCell id="wTLqgzI17LQNo6wX9WLf-5" value="" style="edgeStyle=orthogonalEdgeStyle;rounded=0;orthogonalLoop=1;jettySize=auto;html=1;" edge="1" parent="1">
          <mxGeometry relative="1" as="geometry">
            <mxPoint x="110" y="130" as="sourcePoint" />
            <mxPoint x="110" y="210" as="targetPoint" />
          </mxGeometry>
        </mxCell>
        <mxCell id="wTLqgzI17LQNo6wX9WLf-9" value="" style="edgeStyle=orthogonalEdgeStyle;rounded=0;orthogonalLoop=1;jettySize=auto;html=1;" edge="1" parent="1">
          <mxGeometry relative="1" as="geometry">
            <mxPoint x="110" y="270" as="sourcePoint" />
            <mxPoint x="110" y="340" as="targetPoint" />
          </mxGeometry>
        </mxCell>
        <mxCell id="wTLqgzI17LQNo6wX9WLf-7" value="&lt;b&gt;Travel agency software system&lt;/b&gt;" style="rounded=0;whiteSpace=wrap;html=1;align=center;" vertex="1" parent="1">
          <mxGeometry x="40" y="50" width="140" height="80" as="geometry" />
        </mxCell>
        <mxCell id="wTLqgzI17LQNo6wX9WLf-10" value="&lt;b style=&quot;border-color: var(--border-color);&quot;&gt;Travel Package Manager&lt;/b&gt;" style="rounded=0;whiteSpace=wrap;html=1;" vertex="1" parent="1">
          <mxGeometry x="40" y="190" width="140" height="70" as="geometry" />
        </mxCell>
        <mxCell id="wTLqgzI17LQNo6wX9WLf-13" value="" style="edgeStyle=orthogonalEdgeStyle;rounded=0;orthogonalLoop=1;jettySize=auto;html=1;" edge="1" parent="1" source="wTLqgzI17LQNo6wX9WLf-11" target="wTLqgzI17LQNo6wX9WLf-12">
          <mxGeometry relative="1" as="geometry" />
        </mxCell>
        <mxCell id="wTLqgzI17LQNo6wX9WLf-11" value="&#xa;&lt;b style=&quot;border-color: var(--border-color); color: rgb(0, 0, 0); font-family: Helvetica; font-size: 12px; font-style: normal; font-variant-ligatures: normal; font-variant-caps: normal; letter-spacing: normal; orphans: 2; text-align: center; text-indent: 0px; text-transform: none; widows: 2; word-spacing: 0px; -webkit-text-stroke-width: 0px; background-color: rgb(251, 251, 251); text-decoration-thickness: initial; text-decoration-style: initial; text-decoration-color: initial;&quot;&gt;Travel Package&lt;/b&gt;&#xa;&#xa;" style="rounded=0;whiteSpace=wrap;html=1;" vertex="1" parent="1">
          <mxGeometry x="40" y="320" width="140" height="80" as="geometry" />
        </mxCell>
        <mxCell id="wTLqgzI17LQNo6wX9WLf-15" value="" style="edgeStyle=orthogonalEdgeStyle;rounded=0;orthogonalLoop=1;jettySize=auto;html=1;" edge="1" parent="1" source="wTLqgzI17LQNo6wX9WLf-12" target="wTLqgzI17LQNo6wX9WLf-14">
          <mxGeometry relative="1" as="geometry" />
        </mxCell>
        <mxCell id="wTLqgzI17LQNo6wX9WLf-12" value="&lt;b&gt;Destination&lt;/b&gt;" style="rhombus;whiteSpace=wrap;html=1;rounded=0;" vertex="1" parent="1">
          <mxGeometry x="290" y="310" width="130" height="120" as="geometry" />
        </mxCell>
        <mxCell id="wTLqgzI17LQNo6wX9WLf-17" value="" style="edgeStyle=orthogonalEdgeStyle;rounded=0;orthogonalLoop=1;jettySize=auto;html=1;" edge="1" parent="1" source="wTLqgzI17LQNo6wX9WLf-14" target="wTLqgzI17LQNo6wX9WLf-16">
          <mxGeometry relative="1" as="geometry" />
        </mxCell>
        <mxCell id="wTLqgzI17LQNo6wX9WLf-14" value="&lt;b&gt;Activity&lt;/b&gt;" style="whiteSpace=wrap;html=1;rounded=0;" vertex="1" parent="1">
          <mxGeometry x="520" y="320" width="150" height="80" as="geometry" />
        </mxCell>
        <mxCell id="wTLqgzI17LQNo6wX9WLf-19" value="" style="edgeStyle=orthogonalEdgeStyle;rounded=0;orthogonalLoop=1;jettySize=auto;html=1;" edge="1" parent="1" source="wTLqgzI17LQNo6wX9WLf-16" target="wTLqgzI17LQNo6wX9WLf-18">
          <mxGeometry relative="1" as="geometry" />
        </mxCell>
        <mxCell id="wTLqgzI17LQNo6wX9WLf-16" value="&lt;b&gt;Passenger Manager&lt;/b&gt;" style="whiteSpace=wrap;html=1;rounded=0;" vertex="1" parent="1">
          <mxGeometry x="520" y="190" width="150" height="80" as="geometry" />
        </mxCell>
        <mxCell id="wTLqgzI17LQNo6wX9WLf-18" value="&lt;b&gt;Passenger&lt;/b&gt;" style="whiteSpace=wrap;html=1;rounded=0;" vertex="1" parent="1">
          <mxGeometry x="520" y="60" width="150" height="80" as="geometry" />
        </mxCell>
      </root>
    </mxGraphModel>
  </diagram>
</mxfile>
